<?xml version="1.0" standalone="no"?>
<!DOCTYPE svg PUBLIC "-//W3C//DTD SVG 20010904//EN"
 "http://www.w3.org/TR/2001/REC-SVG-20010904/DTD/svg10.dtd">
<svg version="1.0" xmlns="http://www.w3.org/2000/svg"
 width="550.000000pt" height="550.000000pt" viewBox="0 0 550.000000 550.000000"
 preserveAspectRatio="xMidYMid meet">
<metadata>
Created by potrace 1.11, written by Peter Selinger 2001-2013
</metadata>
<g transform="translate(0.000000,550.000000) scale(0.100000,-0.100000)"
fill="#000000" stroke="none">
<path d="M0 2750 l0 -2750 2750 0 2750 0 0 2750 0 2750 -2750 0 -2750 0 0
-2750z m4192 2480 c51 -15 78 -52 78 -108 0 -72 -32 -123 -134 -215 -94 -85
-152 -149 -202 -227 -27 -42 -88 -126 -143 -195 -41 -51 -424 -425 -435 -425
-6 0 -18 4 -26 10 -12 8 -13 14 -1 47 7 21 27 60 43 87 16 27 50 88 75 135 25
47 56 102 68 121 12 19 58 107 102 195 45 88 97 189 117 223 20 35 36 66 36
69 0 13 93 144 134 190 40 45 57 56 114 72 59 17 92 25 127 30 6 0 27 -4 47
-9z m-2757 -127 c60 -22 120 -78 236 -223 46 -58 130 -159 187 -225 63 -74
137 -177 194 -270 51 -82 116 -181 145 -220 54 -71 64 -99 40 -108 -29 -11
-229 145 -397 309 -158 154 -285 252 -455 351 -38 23 -82 54 -97 70 -32 34
-67 101 -73 139 -3 16 -7 43 -10 59 -6 38 23 88 67 115 41 25 98 26 163 3z
m1301 -28 c21 -20 68 -59 106 -86 37 -28 82 -69 100 -92 18 -23 57 -65 85 -93
29 -28 62 -72 74 -99 21 -46 21 -52 8 -159 -26 -218 -17 -605 17 -727 4 -13
27 -17 130 -22 68 -4 150 -13 182 -21 105 -26 139 -26 175 -2 46 32 54 34 189
51 68 8 166 22 218 30 52 8 165 19 251 25 185 12 201 8 273 -72 27 -29 67 -73
91 -98 48 -51 65 -80 65 -109 0 -12 -41 -61 -104 -125 -90 -90 -118 -112 -197
-152 l-93 -46 -216 3 c-304 4 -651 -26 -853 -75 -54 -13 -100 -26 -102 -28 -2
-2 1 -37 6 -78 7 -48 8 -287 4 -660 -7 -590 -8 -623 -51 -900 -11 -73 -16
-170 -16 -315 1 -254 -9 -315 -69 -416 l-42 -71 16 -146 c28 -242 23 -296 -33
-339 -22 -18 -86 -16 -123 4 -53 27 -136 104 -186 173 -27 36 -64 84 -84 108
-52 62 -136 214 -158 285 -24 78 -26 119 -40 697 -11 432 -10 491 6 651 17
172 17 223 -1 505 -7 109 6 260 33 391 9 45 14 86 10 90 -4 4 -42 -2 -85 -13
-97 -24 -298 -25 -382 -2 -44 13 -95 15 -263 10 -212 -5 -356 6 -424 34 -36
14 -35 13 -37 93 l-1 55 -78 26 c-95 33 -127 60 -127 109 0 54 19 81 90 129
84 56 146 88 191 96 19 3 162 13 318 21 269 14 398 31 467 60 17 7 85 23 150
35 205 38 187 31 196 70 21 102 29 231 20 343 -10 137 -2 265 34 492 30 196
47 256 86 318 57 89 110 102 174 42z m718 -2142 c28 -21 89 -74 136 -118 121
-113 249 -221 371 -314 57 -43 151 -127 209 -186 113 -115 253 -237 318 -279
65 -41 96 -89 96 -150 0 -71 -26 -106 -99 -134 -31 -12 -76 -22 -98 -22 -23 0
-60 -5 -82 -10 -79 -18 -162 24 -243 123 -21 26 -102 153 -102 161 0 24 -365
585 -440 676 -20 25 -52 68 -70 95 -19 28 -39 55 -46 62 -22 22 -56 103 -50
118 9 25 46 17 100 -22z m-1534 -141 c0 -19 -17 -48 -55 -92 -30 -36 -90 -108
-133 -160 -89 -109 -288 -306 -447 -441 -134 -115 -310 -293 -368 -373 -96
-134 -102 -141 -131 -144 -42 -5 -80 15 -126 64 -30 32 -40 52 -40 76 0 67 90
167 270 300 63 47 149 116 190 153 41 37 113 100 160 139 47 39 94 79 105 89
11 10 49 39 85 65 84 59 301 224 363 275 39 32 111 77 124 77 2 0 3 -13 3 -28z"/>
</g>
</svg>
